<mxfile host="app.diagrams.net" modified="2021-08-10T02:49:11.366Z" agent="5.0 (Windows NT 10.0; Win64; x64) AppleWebKit/537.36 (KHTML, like Gecko) Chrome/92.0.4515.131 Safari/537.36" etag="rt8c_ytbiKbx4D5Gvkem" version="14.9.5" type="github">
  <diagram id="-easl9Jb1NgxT9Tk3I08" name="Page-1">
    <mxGraphModel dx="1438" dy="900" grid="1" gridSize="10" guides="1" tooltips="1" connect="1" arrows="1" fold="1" page="0" pageScale="1" pageWidth="827" pageHeight="1169" math="0" shadow="0">
      <root>
        <mxCell id="0" />
        <mxCell id="1" parent="0" />
        <mxCell id="rnmSSfngtP0oOBgDQbal-1" value="" style="verticalLabelPosition=bottom;verticalAlign=top;html=1;shadow=0;dashed=0;strokeWidth=1;shape=mxgraph.android.phone2;strokeColor=#c0c0c0;" parent="1" vertex="1">
          <mxGeometry x="520" y="-10" width="200" height="390" as="geometry" />
        </mxCell>
        <mxCell id="rnmSSfngtP0oOBgDQbal-3" value="Noticias" style="rounded=0;whiteSpace=wrap;html=1;" parent="1" vertex="1">
          <mxGeometry x="540" y="80" width="160" height="60" as="geometry" />
        </mxCell>
        <mxCell id="rnmSSfngtP0oOBgDQbal-21" value="img" style="ellipse;whiteSpace=wrap;html=1;aspect=fixed;" parent="1" vertex="1">
          <mxGeometry x="540" y="150" width="40" height="40" as="geometry" />
        </mxCell>
        <mxCell id="rnmSSfngtP0oOBgDQbal-22" value="Noticia 1" style="rounded=1;whiteSpace=wrap;html=1;" parent="1" vertex="1">
          <mxGeometry x="590" y="150" width="90" height="20" as="geometry" />
        </mxCell>
        <mxCell id="rnmSSfngtP0oOBgDQbal-23" value="img" style="ellipse;whiteSpace=wrap;html=1;aspect=fixed;" parent="1" vertex="1">
          <mxGeometry x="540" y="200" width="40" height="40" as="geometry" />
        </mxCell>
        <mxCell id="rnmSSfngtP0oOBgDQbal-24" value="Noticia 2" style="rounded=1;whiteSpace=wrap;html=1;" parent="1" vertex="1">
          <mxGeometry x="590" y="200" width="90" height="20" as="geometry" />
        </mxCell>
        <mxCell id="rnmSSfngtP0oOBgDQbal-25" value="img" style="ellipse;whiteSpace=wrap;html=1;aspect=fixed;" parent="1" vertex="1">
          <mxGeometry x="540" y="250" width="40" height="40" as="geometry" />
        </mxCell>
        <mxCell id="rnmSSfngtP0oOBgDQbal-26" value="&lt;span&gt;Noticia 3&lt;/span&gt;" style="rounded=1;whiteSpace=wrap;html=1;" parent="1" vertex="1">
          <mxGeometry x="590" y="250" width="90" height="20" as="geometry" />
        </mxCell>
        <mxCell id="rnmSSfngtP0oOBgDQbal-27" value="" style="endArrow=none;html=1;" parent="1" edge="1">
          <mxGeometry width="50" height="50" relative="1" as="geometry">
            <mxPoint x="530" y="50" as="sourcePoint" />
            <mxPoint x="710" y="50" as="targetPoint" />
          </mxGeometry>
        </mxCell>
        <mxCell id="rnmSSfngtP0oOBgDQbal-28" value="Regresar" style="rounded=1;whiteSpace=wrap;html=1;" parent="1" vertex="1">
          <mxGeometry x="530" y="30" width="70" height="20" as="geometry" />
        </mxCell>
        <mxCell id="hV0XPYn4ySz11wFMvFJ8-1" value="" style="verticalLabelPosition=bottom;verticalAlign=top;html=1;shadow=0;dashed=0;strokeWidth=1;shape=mxgraph.android.phone2;strokeColor=#c0c0c0;" parent="1" vertex="1">
          <mxGeometry x="170" y="140" width="200" height="390" as="geometry" />
        </mxCell>
        <mxCell id="hV0XPYn4ySz11wFMvFJ8-2" value="Logo" style="rounded=0;whiteSpace=wrap;html=1;" parent="1" vertex="1">
          <mxGeometry x="190" y="230" width="160" height="60" as="geometry" />
        </mxCell>
        <mxCell id="hV0XPYn4ySz11wFMvFJ8-3" value="img" style="ellipse;whiteSpace=wrap;html=1;aspect=fixed;" parent="1" vertex="1">
          <mxGeometry x="190" y="300" width="40" height="40" as="geometry" />
        </mxCell>
        <mxCell id="hV0XPYn4ySz11wFMvFJ8-4" value="Noticias" style="rounded=1;whiteSpace=wrap;html=1;" parent="1" vertex="1">
          <mxGeometry x="240" y="300" width="90" height="20" as="geometry" />
        </mxCell>
        <mxCell id="hV0XPYn4ySz11wFMvFJ8-5" value="img" style="ellipse;whiteSpace=wrap;html=1;aspect=fixed;" parent="1" vertex="1">
          <mxGeometry x="190" y="350" width="40" height="40" as="geometry" />
        </mxCell>
        <mxCell id="hV0XPYn4ySz11wFMvFJ8-6" value="Blogs" style="rounded=1;whiteSpace=wrap;html=1;" parent="1" vertex="1">
          <mxGeometry x="240" y="350" width="90" height="20" as="geometry" />
        </mxCell>
        <mxCell id="hV0XPYn4ySz11wFMvFJ8-7" value="img" style="ellipse;whiteSpace=wrap;html=1;aspect=fixed;" parent="1" vertex="1">
          <mxGeometry x="190" y="400" width="40" height="40" as="geometry" />
        </mxCell>
        <mxCell id="hV0XPYn4ySz11wFMvFJ8-8" value="&lt;span&gt;Informes&lt;/span&gt;" style="rounded=1;whiteSpace=wrap;html=1;" parent="1" vertex="1">
          <mxGeometry x="240" y="400" width="90" height="20" as="geometry" />
        </mxCell>
        <mxCell id="hV0XPYn4ySz11wFMvFJ8-9" value="" style="endArrow=none;html=1;" parent="1" edge="1">
          <mxGeometry width="50" height="50" relative="1" as="geometry">
            <mxPoint x="180" y="200" as="sourcePoint" />
            <mxPoint x="360" y="200" as="targetPoint" />
          </mxGeometry>
        </mxCell>
        <mxCell id="hV0XPYn4ySz11wFMvFJ8-11" value="" style="verticalLabelPosition=bottom;verticalAlign=top;html=1;shadow=0;dashed=0;strokeWidth=1;shape=mxgraph.android.phone2;strokeColor=#c0c0c0;" parent="1" vertex="1">
          <mxGeometry x="520" y="415" width="200" height="390" as="geometry" />
        </mxCell>
        <mxCell id="hV0XPYn4ySz11wFMvFJ8-12" value="Blogs" style="rounded=0;whiteSpace=wrap;html=1;" parent="1" vertex="1">
          <mxGeometry x="540" y="505" width="160" height="60" as="geometry" />
        </mxCell>
        <mxCell id="hV0XPYn4ySz11wFMvFJ8-13" value="img" style="ellipse;whiteSpace=wrap;html=1;aspect=fixed;" parent="1" vertex="1">
          <mxGeometry x="540" y="575" width="40" height="40" as="geometry" />
        </mxCell>
        <mxCell id="hV0XPYn4ySz11wFMvFJ8-14" value="Blog 1" style="rounded=1;whiteSpace=wrap;html=1;" parent="1" vertex="1">
          <mxGeometry x="590" y="575" width="90" height="20" as="geometry" />
        </mxCell>
        <mxCell id="hV0XPYn4ySz11wFMvFJ8-15" value="img" style="ellipse;whiteSpace=wrap;html=1;aspect=fixed;" parent="1" vertex="1">
          <mxGeometry x="540" y="625" width="40" height="40" as="geometry" />
        </mxCell>
        <mxCell id="hV0XPYn4ySz11wFMvFJ8-16" value="Blog 2" style="rounded=1;whiteSpace=wrap;html=1;" parent="1" vertex="1">
          <mxGeometry x="590" y="625" width="90" height="20" as="geometry" />
        </mxCell>
        <mxCell id="hV0XPYn4ySz11wFMvFJ8-17" value="img" style="ellipse;whiteSpace=wrap;html=1;aspect=fixed;" parent="1" vertex="1">
          <mxGeometry x="540" y="675" width="40" height="40" as="geometry" />
        </mxCell>
        <mxCell id="hV0XPYn4ySz11wFMvFJ8-18" value="&lt;span&gt;Blog 3&lt;/span&gt;" style="rounded=1;whiteSpace=wrap;html=1;" parent="1" vertex="1">
          <mxGeometry x="590" y="675" width="90" height="20" as="geometry" />
        </mxCell>
        <mxCell id="hV0XPYn4ySz11wFMvFJ8-19" value="" style="endArrow=none;html=1;" parent="1" edge="1">
          <mxGeometry width="50" height="50" relative="1" as="geometry">
            <mxPoint x="530" y="475" as="sourcePoint" />
            <mxPoint x="710" y="475" as="targetPoint" />
          </mxGeometry>
        </mxCell>
        <mxCell id="hV0XPYn4ySz11wFMvFJ8-20" value="Regresar" style="rounded=1;whiteSpace=wrap;html=1;" parent="1" vertex="1">
          <mxGeometry x="530" y="455" width="70" height="20" as="geometry" />
        </mxCell>
        <mxCell id="hV0XPYn4ySz11wFMvFJ8-21" value="" style="verticalLabelPosition=bottom;verticalAlign=top;html=1;shadow=0;dashed=0;strokeWidth=1;shape=mxgraph.android.phone2;strokeColor=#c0c0c0;" parent="1" vertex="1">
          <mxGeometry x="520" y="860" width="200" height="390" as="geometry" />
        </mxCell>
        <mxCell id="hV0XPYn4ySz11wFMvFJ8-22" value="Informes" style="rounded=0;whiteSpace=wrap;html=1;" parent="1" vertex="1">
          <mxGeometry x="540" y="950" width="160" height="60" as="geometry" />
        </mxCell>
        <mxCell id="hV0XPYn4ySz11wFMvFJ8-23" value="img" style="ellipse;whiteSpace=wrap;html=1;aspect=fixed;" parent="1" vertex="1">
          <mxGeometry x="540" y="1020" width="40" height="40" as="geometry" />
        </mxCell>
        <mxCell id="hV0XPYn4ySz11wFMvFJ8-24" value="Informe 1" style="rounded=1;whiteSpace=wrap;html=1;" parent="1" vertex="1">
          <mxGeometry x="590" y="1020" width="90" height="20" as="geometry" />
        </mxCell>
        <mxCell id="hV0XPYn4ySz11wFMvFJ8-25" value="img" style="ellipse;whiteSpace=wrap;html=1;aspect=fixed;" parent="1" vertex="1">
          <mxGeometry x="540" y="1070" width="40" height="40" as="geometry" />
        </mxCell>
        <mxCell id="hV0XPYn4ySz11wFMvFJ8-26" value="Informe 2" style="rounded=1;whiteSpace=wrap;html=1;" parent="1" vertex="1">
          <mxGeometry x="590" y="1070" width="90" height="20" as="geometry" />
        </mxCell>
        <mxCell id="hV0XPYn4ySz11wFMvFJ8-27" value="img" style="ellipse;whiteSpace=wrap;html=1;aspect=fixed;" parent="1" vertex="1">
          <mxGeometry x="540" y="1120" width="40" height="40" as="geometry" />
        </mxCell>
        <mxCell id="hV0XPYn4ySz11wFMvFJ8-28" value="&lt;span&gt;Informe 3&lt;/span&gt;" style="rounded=1;whiteSpace=wrap;html=1;" parent="1" vertex="1">
          <mxGeometry x="590" y="1120" width="90" height="20" as="geometry" />
        </mxCell>
        <mxCell id="hV0XPYn4ySz11wFMvFJ8-29" value="" style="endArrow=none;html=1;" parent="1" edge="1">
          <mxGeometry width="50" height="50" relative="1" as="geometry">
            <mxPoint x="530" y="920" as="sourcePoint" />
            <mxPoint x="710" y="920" as="targetPoint" />
          </mxGeometry>
        </mxCell>
        <mxCell id="hV0XPYn4ySz11wFMvFJ8-30" value="Regresar" style="rounded=1;whiteSpace=wrap;html=1;" parent="1" vertex="1">
          <mxGeometry x="530" y="900" width="70" height="20" as="geometry" />
        </mxCell>
        <mxCell id="hV0XPYn4ySz11wFMvFJ8-35" value="" style="endArrow=classic;html=1;exitX=1;exitY=0.5;exitDx=0;exitDy=0;entryX=0.034;entryY=0.438;entryDx=0;entryDy=0;entryPerimeter=0;" parent="1" source="hV0XPYn4ySz11wFMvFJ8-4" target="rnmSSfngtP0oOBgDQbal-1" edge="1">
          <mxGeometry width="50" height="50" relative="1" as="geometry">
            <mxPoint x="430" y="350" as="sourcePoint" />
            <mxPoint x="480" y="300" as="targetPoint" />
            <Array as="points">
              <mxPoint x="460" y="310" />
              <mxPoint x="460" y="161" />
            </Array>
          </mxGeometry>
        </mxCell>
        <mxCell id="hV0XPYn4ySz11wFMvFJ8-38" value="" style="endArrow=classic;html=1;exitX=1;exitY=0.75;exitDx=0;exitDy=0;entryX=0.03;entryY=0.173;entryDx=0;entryDy=0;entryPerimeter=0;" parent="1" source="hV0XPYn4ySz11wFMvFJ8-6" target="hV0XPYn4ySz11wFMvFJ8-11" edge="1">
          <mxGeometry width="50" height="50" relative="1" as="geometry">
            <mxPoint x="550" y="670" as="sourcePoint" />
            <mxPoint x="600" y="620" as="targetPoint" />
            <Array as="points">
              <mxPoint x="460" y="365" />
              <mxPoint x="460" y="482" />
            </Array>
          </mxGeometry>
        </mxCell>
        <mxCell id="hV0XPYn4ySz11wFMvFJ8-40" value="" style="endArrow=classic;html=1;exitX=1;exitY=1;exitDx=0;exitDy=0;entryX=0.01;entryY=0.36;entryDx=0;entryDy=0;entryPerimeter=0;" parent="1" source="hV0XPYn4ySz11wFMvFJ8-8" target="hV0XPYn4ySz11wFMvFJ8-21" edge="1">
          <mxGeometry width="50" height="50" relative="1" as="geometry">
            <mxPoint x="550" y="600" as="sourcePoint" />
            <mxPoint x="530" y="873" as="targetPoint" />
            <Array as="points">
              <mxPoint x="330" y="1000" />
            </Array>
          </mxGeometry>
        </mxCell>
        <mxCell id="hV0XPYn4ySz11wFMvFJ8-41" value="" style="verticalLabelPosition=bottom;verticalAlign=top;html=1;shadow=0;dashed=0;strokeWidth=1;shape=mxgraph.android.phone2;strokeColor=#c0c0c0;" parent="1" vertex="1">
          <mxGeometry x="810" y="-10" width="200" height="390" as="geometry" />
        </mxCell>
        <mxCell id="hV0XPYn4ySz11wFMvFJ8-42" value="Noticia" style="rounded=0;whiteSpace=wrap;html=1;" parent="1" vertex="1">
          <mxGeometry x="830" y="60" width="160" height="60" as="geometry" />
        </mxCell>
        <mxCell id="hV0XPYn4ySz11wFMvFJ8-49" value="" style="endArrow=none;html=1;" parent="1" edge="1">
          <mxGeometry width="50" height="50" relative="1" as="geometry">
            <mxPoint x="820" y="50" as="sourcePoint" />
            <mxPoint x="1000" y="50" as="targetPoint" />
          </mxGeometry>
        </mxCell>
        <mxCell id="hV0XPYn4ySz11wFMvFJ8-50" value="Regresar" style="rounded=1;whiteSpace=wrap;html=1;" parent="1" vertex="1">
          <mxGeometry x="820" y="30" width="70" height="20" as="geometry" />
        </mxCell>
        <mxCell id="hV0XPYn4ySz11wFMvFJ8-51" value="&lt;h1&gt;Noticia&lt;/h1&gt;&lt;p&gt;Lorem ipsum dolor sit amet, consectetur adipisicing elit, sed do eiusmod tempor incididunt ut labore et dolore magna aliqua.&lt;/p&gt;" style="text;html=1;strokeColor=none;fillColor=none;spacing=5;spacingTop=-20;whiteSpace=wrap;overflow=hidden;rounded=0;glass=0;sketch=0;" parent="1" vertex="1">
          <mxGeometry x="820" y="130" width="180" height="120" as="geometry" />
        </mxCell>
        <mxCell id="hV0XPYn4ySz11wFMvFJ8-54" value="" style="rounded=1;whiteSpace=wrap;html=1;glass=0;sketch=0;strokeColor=#000000;fillColor=none;gradientColor=#ffffff;" parent="1" vertex="1">
          <mxGeometry x="820" y="250" width="180" height="90" as="geometry" />
        </mxCell>
        <mxCell id="hV0XPYn4ySz11wFMvFJ8-55" value="Comentarios" style="text;html=1;strokeColor=none;fillColor=none;align=center;verticalAlign=middle;whiteSpace=wrap;rounded=0;glass=0;sketch=0;" parent="1" vertex="1">
          <mxGeometry x="840" y="250" width="40" height="20" as="geometry" />
        </mxCell>
        <mxCell id="hV0XPYn4ySz11wFMvFJ8-56" value="img" style="ellipse;whiteSpace=wrap;html=1;aspect=fixed;" parent="1" vertex="1">
          <mxGeometry x="820" y="270" width="40" height="40" as="geometry" />
        </mxCell>
        <mxCell id="hV0XPYn4ySz11wFMvFJ8-57" value="&lt;span&gt;Comentario 1&lt;/span&gt;" style="rounded=1;whiteSpace=wrap;html=1;" parent="1" vertex="1">
          <mxGeometry x="870" y="270" width="90" height="20" as="geometry" />
        </mxCell>
        <mxCell id="hV0XPYn4ySz11wFMvFJ8-58" value="" style="endArrow=classic;html=1;exitX=1;exitY=0.5;exitDx=0;exitDy=0;entryX=0.004;entryY=0.433;entryDx=0;entryDy=0;entryPerimeter=0;" parent="1" source="rnmSSfngtP0oOBgDQbal-22" target="hV0XPYn4ySz11wFMvFJ8-41" edge="1">
          <mxGeometry width="50" height="50" relative="1" as="geometry">
            <mxPoint x="700" y="190" as="sourcePoint" />
            <mxPoint x="750" y="140" as="targetPoint" />
          </mxGeometry>
        </mxCell>
        <mxCell id="hV0XPYn4ySz11wFMvFJ8-61" value="" style="html=1;verticalLabelPosition=bottom;labelBackgroundColor=#ffffff;verticalAlign=top;shadow=0;dashed=0;strokeWidth=2;shape=mxgraph.ios7.misc.scroll_(vertical);fillColor=#a0a0a0;glass=0;sketch=0;" parent="1" vertex="1">
          <mxGeometry x="984" y="255" width="6" height="80" as="geometry" />
        </mxCell>
        <mxCell id="hV0XPYn4ySz11wFMvFJ8-62" value="" style="endArrow=classic;html=1;exitX=1;exitY=0.5;exitDx=0;exitDy=0;" parent="1" source="rnmSSfngtP0oOBgDQbal-24" edge="1">
          <mxGeometry width="50" height="50" relative="1" as="geometry">
            <mxPoint x="700" y="350" as="sourcePoint" />
            <mxPoint x="810" y="210" as="targetPoint" />
          </mxGeometry>
        </mxCell>
        <mxCell id="hV0XPYn4ySz11wFMvFJ8-63" value="" style="endArrow=classic;html=1;exitX=1;exitY=0.5;exitDx=0;exitDy=0;" parent="1" edge="1">
          <mxGeometry width="50" height="50" relative="1" as="geometry">
            <mxPoint x="680" y="259.5" as="sourcePoint" />
            <mxPoint x="810" y="259.5" as="targetPoint" />
          </mxGeometry>
        </mxCell>
        <mxCell id="hV0XPYn4ySz11wFMvFJ8-64" value="" style="verticalLabelPosition=bottom;verticalAlign=top;html=1;shadow=0;dashed=0;strokeWidth=1;shape=mxgraph.android.phone2;strokeColor=#c0c0c0;" parent="1" vertex="1">
          <mxGeometry x="815" y="410" width="200" height="390" as="geometry" />
        </mxCell>
        <mxCell id="hV0XPYn4ySz11wFMvFJ8-65" value="Blog" style="rounded=0;whiteSpace=wrap;html=1;" parent="1" vertex="1">
          <mxGeometry x="835" y="480" width="160" height="60" as="geometry" />
        </mxCell>
        <mxCell id="hV0XPYn4ySz11wFMvFJ8-66" value="" style="endArrow=none;html=1;" parent="1" edge="1">
          <mxGeometry width="50" height="50" relative="1" as="geometry">
            <mxPoint x="825" y="470" as="sourcePoint" />
            <mxPoint x="1005" y="470" as="targetPoint" />
          </mxGeometry>
        </mxCell>
        <mxCell id="hV0XPYn4ySz11wFMvFJ8-67" value="Regresar" style="rounded=1;whiteSpace=wrap;html=1;" parent="1" vertex="1">
          <mxGeometry x="825" y="450" width="70" height="20" as="geometry" />
        </mxCell>
        <mxCell id="hV0XPYn4ySz11wFMvFJ8-68" value="&lt;h1&gt;Blog&lt;/h1&gt;&lt;p&gt;Lorem ipsum dolor sit amet, consectetur adipisicing elit, sed do eiusmod tempor incididunt ut labore et dolore magna aliqua.&lt;/p&gt;" style="text;html=1;strokeColor=none;fillColor=none;spacing=5;spacingTop=-20;whiteSpace=wrap;overflow=hidden;rounded=0;glass=0;sketch=0;" parent="1" vertex="1">
          <mxGeometry x="825" y="550" width="180" height="120" as="geometry" />
        </mxCell>
        <mxCell id="hV0XPYn4ySz11wFMvFJ8-69" value="" style="rounded=1;whiteSpace=wrap;html=1;glass=0;sketch=0;strokeColor=#000000;fillColor=none;gradientColor=#ffffff;" parent="1" vertex="1">
          <mxGeometry x="825" y="670" width="180" height="90" as="geometry" />
        </mxCell>
        <mxCell id="hV0XPYn4ySz11wFMvFJ8-70" value="Comentarios" style="text;html=1;strokeColor=none;fillColor=none;align=center;verticalAlign=middle;whiteSpace=wrap;rounded=0;glass=0;sketch=0;" parent="1" vertex="1">
          <mxGeometry x="845" y="670" width="40" height="20" as="geometry" />
        </mxCell>
        <mxCell id="hV0XPYn4ySz11wFMvFJ8-71" value="img" style="ellipse;whiteSpace=wrap;html=1;aspect=fixed;" parent="1" vertex="1">
          <mxGeometry x="825" y="690" width="40" height="40" as="geometry" />
        </mxCell>
        <mxCell id="hV0XPYn4ySz11wFMvFJ8-72" value="&lt;span&gt;Comentario 1&lt;/span&gt;" style="rounded=1;whiteSpace=wrap;html=1;" parent="1" vertex="1">
          <mxGeometry x="875" y="690" width="90" height="20" as="geometry" />
        </mxCell>
        <mxCell id="hV0XPYn4ySz11wFMvFJ8-73" value="" style="html=1;verticalLabelPosition=bottom;labelBackgroundColor=#ffffff;verticalAlign=top;shadow=0;dashed=0;strokeWidth=2;shape=mxgraph.ios7.misc.scroll_(vertical);fillColor=#a0a0a0;glass=0;sketch=0;" parent="1" vertex="1">
          <mxGeometry x="989" y="675" width="6" height="80" as="geometry" />
        </mxCell>
        <mxCell id="hV0XPYn4ySz11wFMvFJ8-74" value="" style="endArrow=classic;html=1;" parent="1" edge="1">
          <mxGeometry width="50" height="50" relative="1" as="geometry">
            <mxPoint x="680" y="585" as="sourcePoint" />
            <mxPoint x="815" y="584.5" as="targetPoint" />
          </mxGeometry>
        </mxCell>
        <mxCell id="hV0XPYn4ySz11wFMvFJ8-75" value="" style="endArrow=classic;html=1;" parent="1" edge="1">
          <mxGeometry width="50" height="50" relative="1" as="geometry">
            <mxPoint x="680" y="635" as="sourcePoint" />
            <mxPoint x="815" y="634.5" as="targetPoint" />
          </mxGeometry>
        </mxCell>
        <mxCell id="hV0XPYn4ySz11wFMvFJ8-76" value="" style="endArrow=classic;html=1;" parent="1" edge="1">
          <mxGeometry width="50" height="50" relative="1" as="geometry">
            <mxPoint x="680" y="685" as="sourcePoint" />
            <mxPoint x="815" y="684.5" as="targetPoint" />
          </mxGeometry>
        </mxCell>
        <mxCell id="hV0XPYn4ySz11wFMvFJ8-77" value="" style="verticalLabelPosition=bottom;verticalAlign=top;html=1;shadow=0;dashed=0;strokeWidth=1;shape=mxgraph.android.phone2;strokeColor=#c0c0c0;" parent="1" vertex="1">
          <mxGeometry x="820" y="860" width="200" height="390" as="geometry" />
        </mxCell>
        <mxCell id="hV0XPYn4ySz11wFMvFJ8-78" value="Informe" style="rounded=0;whiteSpace=wrap;html=1;" parent="1" vertex="1">
          <mxGeometry x="840" y="930" width="160" height="60" as="geometry" />
        </mxCell>
        <mxCell id="hV0XPYn4ySz11wFMvFJ8-79" value="" style="endArrow=none;html=1;" parent="1" edge="1">
          <mxGeometry width="50" height="50" relative="1" as="geometry">
            <mxPoint x="830" y="920" as="sourcePoint" />
            <mxPoint x="1010" y="920" as="targetPoint" />
          </mxGeometry>
        </mxCell>
        <mxCell id="hV0XPYn4ySz11wFMvFJ8-80" value="Regresar" style="rounded=1;whiteSpace=wrap;html=1;" parent="1" vertex="1">
          <mxGeometry x="830" y="900" width="70" height="20" as="geometry" />
        </mxCell>
        <mxCell id="hV0XPYn4ySz11wFMvFJ8-81" value="&lt;h1&gt;Informe&lt;/h1&gt;&lt;p&gt;Lorem ipsum dolor sit amet, consectetur adipisicing elit, sed do eiusmod tempor incididunt ut labore et dolore magna aliqua.&lt;/p&gt;" style="text;html=1;strokeColor=none;fillColor=none;spacing=5;spacingTop=-20;whiteSpace=wrap;overflow=hidden;rounded=0;glass=0;sketch=0;" parent="1" vertex="1">
          <mxGeometry x="830" y="1000" width="180" height="120" as="geometry" />
        </mxCell>
        <mxCell id="hV0XPYn4ySz11wFMvFJ8-82" value="" style="rounded=1;whiteSpace=wrap;html=1;glass=0;sketch=0;strokeColor=#000000;fillColor=none;gradientColor=#ffffff;" parent="1" vertex="1">
          <mxGeometry x="830" y="1120" width="180" height="90" as="geometry" />
        </mxCell>
        <mxCell id="hV0XPYn4ySz11wFMvFJ8-83" value="Comentarios" style="text;html=1;strokeColor=none;fillColor=none;align=center;verticalAlign=middle;whiteSpace=wrap;rounded=0;glass=0;sketch=0;" parent="1" vertex="1">
          <mxGeometry x="850" y="1120" width="40" height="20" as="geometry" />
        </mxCell>
        <mxCell id="hV0XPYn4ySz11wFMvFJ8-84" value="img" style="ellipse;whiteSpace=wrap;html=1;aspect=fixed;" parent="1" vertex="1">
          <mxGeometry x="830" y="1140" width="40" height="40" as="geometry" />
        </mxCell>
        <mxCell id="hV0XPYn4ySz11wFMvFJ8-85" value="&lt;span&gt;Comentario 1&lt;/span&gt;" style="rounded=1;whiteSpace=wrap;html=1;" parent="1" vertex="1">
          <mxGeometry x="880" y="1140" width="90" height="20" as="geometry" />
        </mxCell>
        <mxCell id="hV0XPYn4ySz11wFMvFJ8-86" value="" style="html=1;verticalLabelPosition=bottom;labelBackgroundColor=#ffffff;verticalAlign=top;shadow=0;dashed=0;strokeWidth=2;shape=mxgraph.ios7.misc.scroll_(vertical);fillColor=#a0a0a0;glass=0;sketch=0;" parent="1" vertex="1">
          <mxGeometry x="994" y="1125" width="6" height="80" as="geometry" />
        </mxCell>
        <mxCell id="hV0XPYn4ySz11wFMvFJ8-87" value="" style="endArrow=classic;html=1;exitX=1;exitY=0.5;exitDx=0;exitDy=0;" parent="1" source="hV0XPYn4ySz11wFMvFJ8-24" edge="1">
          <mxGeometry width="50" height="50" relative="1" as="geometry">
            <mxPoint x="685" y="1030" as="sourcePoint" />
            <mxPoint x="820" y="1029.5" as="targetPoint" />
          </mxGeometry>
        </mxCell>
        <mxCell id="hV0XPYn4ySz11wFMvFJ8-88" value="" style="endArrow=classic;html=1;exitX=1;exitY=0.5;exitDx=0;exitDy=0;" parent="1" edge="1">
          <mxGeometry width="50" height="50" relative="1" as="geometry">
            <mxPoint x="680" y="1080" as="sourcePoint" />
            <mxPoint x="820" y="1079.5" as="targetPoint" />
          </mxGeometry>
        </mxCell>
        <mxCell id="hV0XPYn4ySz11wFMvFJ8-89" value="" style="endArrow=classic;html=1;exitX=1;exitY=0.5;exitDx=0;exitDy=0;" parent="1" edge="1">
          <mxGeometry width="50" height="50" relative="1" as="geometry">
            <mxPoint x="680" y="1130" as="sourcePoint" />
            <mxPoint x="820" y="1129.5" as="targetPoint" />
          </mxGeometry>
        </mxCell>
        <mxCell id="hV0XPYn4ySz11wFMvFJ8-90" value="" style="endArrow=classic;html=1;exitX=0;exitY=0.5;exitDx=0;exitDy=0;entryX=0.982;entryY=0.125;entryDx=0;entryDy=0;entryPerimeter=0;" parent="1" source="hV0XPYn4ySz11wFMvFJ8-50" target="rnmSSfngtP0oOBgDQbal-1" edge="1">
          <mxGeometry width="50" height="50" relative="1" as="geometry">
            <mxPoint x="760" as="sourcePoint" />
            <mxPoint x="810" y="-50" as="targetPoint" />
          </mxGeometry>
        </mxCell>
        <mxCell id="hV0XPYn4ySz11wFMvFJ8-91" value="" style="endArrow=classic;html=1;exitX=0;exitY=0.5;exitDx=0;exitDy=0;entryX=0.944;entryY=0.028;entryDx=0;entryDy=0;entryPerimeter=0;" parent="1" source="rnmSSfngtP0oOBgDQbal-28" target="hV0XPYn4ySz11wFMvFJ8-1" edge="1">
          <mxGeometry width="50" height="50" relative="1" as="geometry">
            <mxPoint x="520" y="39" as="sourcePoint" />
            <mxPoint x="436.4000000000001" y="39.38" as="targetPoint" />
            <Array as="points">
              <mxPoint x="360" y="40" />
            </Array>
          </mxGeometry>
        </mxCell>
        <mxCell id="hV0XPYn4ySz11wFMvFJ8-92" value="" style="endArrow=classic;html=1;exitX=0;exitY=0.5;exitDx=0;exitDy=0;entryX=0.982;entryY=0.125;entryDx=0;entryDy=0;entryPerimeter=0;" parent="1" edge="1">
          <mxGeometry width="50" height="50" relative="1" as="geometry">
            <mxPoint x="823.6" y="460.63" as="sourcePoint" />
            <mxPoint x="720.0000000000001" y="459.38" as="targetPoint" />
          </mxGeometry>
        </mxCell>
        <mxCell id="hV0XPYn4ySz11wFMvFJ8-93" value="" style="endArrow=classic;html=1;exitX=0;exitY=0.5;exitDx=0;exitDy=0;entryX=0.978;entryY=0.13;entryDx=0;entryDy=0;entryPerimeter=0;" parent="1" target="hV0XPYn4ySz11wFMvFJ8-21" edge="1">
          <mxGeometry width="50" height="50" relative="1" as="geometry">
            <mxPoint x="829.9999999999999" y="910.6200000000001" as="sourcePoint" />
            <mxPoint x="726.4" y="909.3700000000001" as="targetPoint" />
          </mxGeometry>
        </mxCell>
        <mxCell id="hV0XPYn4ySz11wFMvFJ8-94" value="" style="endArrow=classic;html=1;exitX=0;exitY=0.5;exitDx=0;exitDy=0;entryX=0.984;entryY=0.838;entryDx=0;entryDy=0;entryPerimeter=0;" parent="1" target="hV0XPYn4ySz11wFMvFJ8-1" edge="1">
          <mxGeometry width="50" height="50" relative="1" as="geometry">
            <mxPoint x="530" y="465.63" as="sourcePoint" />
            <mxPoint x="426.4000000000001" y="464.38" as="targetPoint" />
          </mxGeometry>
        </mxCell>
        <mxCell id="hV0XPYn4ySz11wFMvFJ8-95" value="" style="endArrow=classic;html=1;exitX=0;exitY=0.5;exitDx=0;exitDy=0;entryX=0.944;entryY=0.977;entryDx=0;entryDy=0;entryPerimeter=0;" parent="1" target="hV0XPYn4ySz11wFMvFJ8-1" edge="1">
          <mxGeometry width="50" height="50" relative="1" as="geometry">
            <mxPoint x="530" y="909.5000000000001" as="sourcePoint" />
            <mxPoint x="415.5999999999999" y="909.58" as="targetPoint" />
            <Array as="points">
              <mxPoint x="359" y="910" />
            </Array>
          </mxGeometry>
        </mxCell>
        <mxCell id="hV0XPYn4ySz11wFMvFJ8-96" value="Salir" style="rounded=1;whiteSpace=wrap;html=1;" parent="1" vertex="1">
          <mxGeometry x="180" y="180" width="70" height="20" as="geometry" />
        </mxCell>
        <mxCell id="hV0XPYn4ySz11wFMvFJ8-97" value="" style="verticalLabelPosition=bottom;verticalAlign=top;html=1;shadow=0;dashed=0;strokeWidth=1;shape=mxgraph.android.phone2;strokeColor=#c0c0c0;" parent="1" vertex="1">
          <mxGeometry x="-130" y="140" width="200" height="390" as="geometry" />
        </mxCell>
        <mxCell id="hV0XPYn4ySz11wFMvFJ8-98" value="Logo" style="rounded=0;whiteSpace=wrap;html=1;" parent="1" vertex="1">
          <mxGeometry x="-110" y="190" width="160" height="60" as="geometry" />
        </mxCell>
        <mxCell id="hV0XPYn4ySz11wFMvFJ8-107" value="Usuario:" style="text;html=1;align=center;verticalAlign=middle;resizable=0;points=[];autosize=1;strokeColor=none;" parent="1" vertex="1">
          <mxGeometry x="-120" y="280" width="60" height="20" as="geometry" />
        </mxCell>
        <mxCell id="hV0XPYn4ySz11wFMvFJ8-108" value="Contraseña" style="text;html=1;align=center;verticalAlign=middle;resizable=0;points=[];autosize=1;strokeColor=none;" parent="1" vertex="1">
          <mxGeometry x="-120" y="315" width="80" height="20" as="geometry" />
        </mxCell>
        <mxCell id="hV0XPYn4ySz11wFMvFJ8-110" value="" style="rounded=1;whiteSpace=wrap;html=1;" parent="1" vertex="1">
          <mxGeometry x="-40" y="280" width="90" height="20" as="geometry" />
        </mxCell>
        <mxCell id="hV0XPYn4ySz11wFMvFJ8-111" value="" style="rounded=1;whiteSpace=wrap;html=1;" parent="1" vertex="1">
          <mxGeometry x="-40" y="315" width="90" height="20" as="geometry" />
        </mxCell>
        <mxCell id="hV0XPYn4ySz11wFMvFJ8-112" value="Ingresar" style="rounded=0;whiteSpace=wrap;html=1;" parent="1" vertex="1">
          <mxGeometry x="-110" y="370" width="160" height="30" as="geometry" />
        </mxCell>
        <mxCell id="hV0XPYn4ySz11wFMvFJ8-113" value="Registrar" style="rounded=0;whiteSpace=wrap;html=1;" parent="1" vertex="1">
          <mxGeometry x="-110" y="405" width="160" height="30" as="geometry" />
        </mxCell>
        <mxCell id="hV0XPYn4ySz11wFMvFJ8-114" value="Olvide mi usuario / contraseña" style="text;html=1;align=center;verticalAlign=middle;resizable=0;points=[];autosize=1;strokeColor=none;" parent="1" vertex="1">
          <mxGeometry x="-120" y="450" width="180" height="20" as="geometry" />
        </mxCell>
        <mxCell id="hV0XPYn4ySz11wFMvFJ8-115" value="" style="verticalLabelPosition=bottom;verticalAlign=top;html=1;shadow=0;dashed=0;strokeWidth=1;shape=mxgraph.android.phone2;strokeColor=#c0c0c0;" parent="1" vertex="1">
          <mxGeometry x="-390" y="565" width="200" height="390" as="geometry" />
        </mxCell>
        <mxCell id="hV0XPYn4ySz11wFMvFJ8-116" value="Logo" style="rounded=0;whiteSpace=wrap;html=1;" parent="1" vertex="1">
          <mxGeometry x="-370" y="635" width="160" height="60" as="geometry" />
        </mxCell>
        <mxCell id="hV0XPYn4ySz11wFMvFJ8-117" value="Nombre:" style="text;html=1;align=center;verticalAlign=middle;resizable=0;points=[];autosize=1;strokeColor=none;" parent="1" vertex="1">
          <mxGeometry x="-380" y="705" width="60" height="20" as="geometry" />
        </mxCell>
        <mxCell id="hV0XPYn4ySz11wFMvFJ8-118" value="Correo:" style="text;html=1;align=center;verticalAlign=middle;resizable=0;points=[];autosize=1;strokeColor=none;" parent="1" vertex="1">
          <mxGeometry x="-380" y="740" width="60" height="20" as="geometry" />
        </mxCell>
        <mxCell id="hV0XPYn4ySz11wFMvFJ8-119" value="" style="rounded=1;whiteSpace=wrap;html=1;" parent="1" vertex="1">
          <mxGeometry x="-300" y="705" width="90" height="20" as="geometry" />
        </mxCell>
        <mxCell id="hV0XPYn4ySz11wFMvFJ8-120" value="" style="rounded=1;whiteSpace=wrap;html=1;" parent="1" vertex="1">
          <mxGeometry x="-300" y="740" width="90" height="20" as="geometry" />
        </mxCell>
        <mxCell id="hV0XPYn4ySz11wFMvFJ8-124" value="Recordar&amp;nbsp;" style="text;html=1;align=center;verticalAlign=middle;resizable=0;points=[];autosize=1;strokeColor=none;" parent="1" vertex="1">
          <mxGeometry x="-120" y="340" width="70" height="20" as="geometry" />
        </mxCell>
        <mxCell id="hV0XPYn4ySz11wFMvFJ8-126" value="" style="html=1;verticalLabelPosition=bottom;labelBackgroundColor=#ffffff;verticalAlign=top;shadow=0;dashed=0;strokeWidth=2;shape=mxgraph.ios7.misc.select;fillColor=#0080f0;strokeColor=#ffffff;glass=0;sketch=0;" parent="1" vertex="1">
          <mxGeometry x="-40" y="340" width="26" height="26" as="geometry" />
        </mxCell>
        <mxCell id="hV0XPYn4ySz11wFMvFJ8-127" value="Usuario:" style="text;html=1;align=center;verticalAlign=middle;resizable=0;points=[];autosize=1;strokeColor=none;" parent="1" vertex="1">
          <mxGeometry x="-380" y="770" width="60" height="20" as="geometry" />
        </mxCell>
        <mxCell id="hV0XPYn4ySz11wFMvFJ8-129" value="Contraseña:" style="text;html=1;align=center;verticalAlign=middle;resizable=0;points=[];autosize=1;strokeColor=none;" parent="1" vertex="1">
          <mxGeometry x="-380" y="800" width="80" height="20" as="geometry" />
        </mxCell>
        <mxCell id="hV0XPYn4ySz11wFMvFJ8-130" value="" style="rounded=1;whiteSpace=wrap;html=1;" parent="1" vertex="1">
          <mxGeometry x="-300" y="770" width="90" height="20" as="geometry" />
        </mxCell>
        <mxCell id="hV0XPYn4ySz11wFMvFJ8-131" value="" style="rounded=1;whiteSpace=wrap;html=1;" parent="1" vertex="1">
          <mxGeometry x="-300" y="800" width="90" height="20" as="geometry" />
        </mxCell>
        <mxCell id="hV0XPYn4ySz11wFMvFJ8-132" value="Foto" style="text;html=1;align=center;verticalAlign=middle;resizable=0;points=[];autosize=1;strokeColor=none;" parent="1" vertex="1">
          <mxGeometry x="-380" y="825" width="40" height="20" as="geometry" />
        </mxCell>
        <mxCell id="hV0XPYn4ySz11wFMvFJ8-133" value="" style="shape=mxgraph.signs.tech.camera_2;html=1;pointerEvents=1;fillColor=#000000;strokeColor=none;verticalLabelPosition=bottom;verticalAlign=top;align=center;glass=0;sketch=0;" parent="1" vertex="1">
          <mxGeometry x="-290" y="825" width="30" height="20" as="geometry" />
        </mxCell>
        <mxCell id="hV0XPYn4ySz11wFMvFJ8-134" value="Registrar usuario" style="rounded=0;whiteSpace=wrap;html=1;glass=0;sketch=0;strokeColor=#000000;" parent="1" vertex="1">
          <mxGeometry x="-360" y="865" width="140" height="30" as="geometry" />
        </mxCell>
        <mxCell id="hV0XPYn4ySz11wFMvFJ8-135" value="" style="verticalLabelPosition=bottom;verticalAlign=top;html=1;shadow=0;dashed=0;strokeWidth=1;shape=mxgraph.android.phone2;strokeColor=#c0c0c0;" parent="1" vertex="1">
          <mxGeometry x="-30" y="565" width="200" height="390" as="geometry" />
        </mxCell>
        <mxCell id="hV0XPYn4ySz11wFMvFJ8-136" value="Logo" style="rounded=0;whiteSpace=wrap;html=1;" parent="1" vertex="1">
          <mxGeometry x="-10" y="635" width="160" height="60" as="geometry" />
        </mxCell>
        <mxCell id="hV0XPYn4ySz11wFMvFJ8-137" value="Usuario:" style="text;html=1;align=center;verticalAlign=middle;resizable=0;points=[];autosize=1;strokeColor=none;" parent="1" vertex="1">
          <mxGeometry x="-20" y="722.5" width="60" height="20" as="geometry" />
        </mxCell>
        <mxCell id="hV0XPYn4ySz11wFMvFJ8-138" value="Contraseña:" style="text;html=1;align=center;verticalAlign=middle;resizable=0;points=[];autosize=1;strokeColor=none;" parent="1" vertex="1">
          <mxGeometry x="-30" y="757.5" width="80" height="20" as="geometry" />
        </mxCell>
        <mxCell id="hV0XPYn4ySz11wFMvFJ8-139" value="" style="rounded=1;whiteSpace=wrap;html=1;" parent="1" vertex="1">
          <mxGeometry x="60" y="722.5" width="90" height="20" as="geometry" />
        </mxCell>
        <mxCell id="hV0XPYn4ySz11wFMvFJ8-140" value="" style="rounded=1;whiteSpace=wrap;html=1;" parent="1" vertex="1">
          <mxGeometry x="60" y="757.5" width="90" height="20" as="geometry" />
        </mxCell>
        <mxCell id="hV0XPYn4ySz11wFMvFJ8-147" value="Restaurar contraseña" style="rounded=0;whiteSpace=wrap;html=1;glass=0;sketch=0;strokeColor=#000000;" parent="1" vertex="1">
          <mxGeometry y="865" width="140" height="30" as="geometry" />
        </mxCell>
        <mxCell id="hV0XPYn4ySz11wFMvFJ8-148" value="Confirma&lt;br&gt;contraseña:" style="text;html=1;align=center;verticalAlign=middle;resizable=0;points=[];autosize=1;strokeColor=none;" parent="1" vertex="1">
          <mxGeometry x="-30" y="785" width="80" height="30" as="geometry" />
        </mxCell>
        <mxCell id="hV0XPYn4ySz11wFMvFJ8-149" value="" style="rounded=1;whiteSpace=wrap;html=1;" parent="1" vertex="1">
          <mxGeometry x="60" y="790" width="90" height="20" as="geometry" />
        </mxCell>
        <mxCell id="hV0XPYn4ySz11wFMvFJ8-150" value="" style="endArrow=classic;html=1;exitX=1;exitY=0.5;exitDx=0;exitDy=0;entryX=0.004;entryY=0.627;entryDx=0;entryDy=0;entryPerimeter=0;" parent="1" source="hV0XPYn4ySz11wFMvFJ8-112" target="hV0XPYn4ySz11wFMvFJ8-1" edge="1">
          <mxGeometry width="50" height="50" relative="1" as="geometry">
            <mxPoint x="90" y="410" as="sourcePoint" />
            <mxPoint x="140" y="360" as="targetPoint" />
          </mxGeometry>
        </mxCell>
        <mxCell id="hV0XPYn4ySz11wFMvFJ8-151" value="" style="endArrow=classic;html=1;exitX=0;exitY=0.5;exitDx=0;exitDy=0;entryX=0.5;entryY=0.013;entryDx=0;entryDy=0;entryPerimeter=0;" parent="1" source="hV0XPYn4ySz11wFMvFJ8-113" target="hV0XPYn4ySz11wFMvFJ8-115" edge="1">
          <mxGeometry width="50" height="50" relative="1" as="geometry">
            <mxPoint x="-280" y="460" as="sourcePoint" />
            <mxPoint x="-290" y="550" as="targetPoint" />
            <Array as="points">
              <mxPoint x="-290" y="420" />
            </Array>
          </mxGeometry>
        </mxCell>
        <mxCell id="hV0XPYn4ySz11wFMvFJ8-152" value="" style="endArrow=classic;html=1;exitX=0.904;exitY=1.16;exitDx=0;exitDy=0;exitPerimeter=0;entryX=0.364;entryY=-0.002;entryDx=0;entryDy=0;entryPerimeter=0;" parent="1" source="hV0XPYn4ySz11wFMvFJ8-114" target="hV0XPYn4ySz11wFMvFJ8-135" edge="1">
          <mxGeometry width="50" height="50" relative="1" as="geometry">
            <mxPoint x="60" y="580" as="sourcePoint" />
            <mxPoint x="110" y="530" as="targetPoint" />
          </mxGeometry>
        </mxCell>
        <mxCell id="hV0XPYn4ySz11wFMvFJ8-153" value="" style="endArrow=none;html=1;" parent="1" edge="1">
          <mxGeometry width="50" height="50" relative="1" as="geometry">
            <mxPoint x="-20" y="624" as="sourcePoint" />
            <mxPoint x="160" y="624" as="targetPoint" />
          </mxGeometry>
        </mxCell>
        <mxCell id="hV0XPYn4ySz11wFMvFJ8-154" value="Regresar" style="rounded=1;whiteSpace=wrap;html=1;" parent="1" vertex="1">
          <mxGeometry x="-20" y="604" width="70" height="20" as="geometry" />
        </mxCell>
        <mxCell id="hV0XPYn4ySz11wFMvFJ8-157" value="" style="endArrow=none;html=1;" parent="1" edge="1">
          <mxGeometry width="50" height="50" relative="1" as="geometry">
            <mxPoint x="-380" y="624" as="sourcePoint" />
            <mxPoint x="-200" y="624" as="targetPoint" />
          </mxGeometry>
        </mxCell>
        <mxCell id="hV0XPYn4ySz11wFMvFJ8-158" value="Regresar" style="rounded=1;whiteSpace=wrap;html=1;" parent="1" vertex="1">
          <mxGeometry x="-380" y="604" width="70" height="20" as="geometry" />
        </mxCell>
        <mxCell id="hV0XPYn4ySz11wFMvFJ8-159" value="" style="endArrow=classic;html=1;entryX=1;entryY=0.112;entryDx=0;entryDy=0;entryPerimeter=0;exitX=0;exitY=0.25;exitDx=0;exitDy=0;" parent="1" source="hV0XPYn4ySz11wFMvFJ8-96" target="hV0XPYn4ySz11wFMvFJ8-97" edge="1">
          <mxGeometry width="50" height="50" relative="1" as="geometry">
            <mxPoint x="140" y="200" as="sourcePoint" />
            <mxPoint x="260" y="340" as="targetPoint" />
          </mxGeometry>
        </mxCell>
        <mxCell id="hV0XPYn4ySz11wFMvFJ8-160" value="" style="endArrow=classic;html=1;exitX=0;exitY=0.25;exitDx=0;exitDy=0;entryX=0.552;entryY=0.988;entryDx=0;entryDy=0;entryPerimeter=0;" parent="1" target="hV0XPYn4ySz11wFMvFJ8-97" edge="1">
          <mxGeometry width="50" height="50" relative="1" as="geometry">
            <mxPoint x="-20" y="616.3199999999999" as="sourcePoint" />
            <mxPoint x="-18" y="525" as="targetPoint" />
          </mxGeometry>
        </mxCell>
        <mxCell id="hV0XPYn4ySz11wFMvFJ8-161" value="" style="endArrow=classic;html=1;exitX=0;exitY=0.25;exitDx=0;exitDy=0;entryX=-0.016;entryY=0.366;entryDx=0;entryDy=0;entryPerimeter=0;" parent="1" target="hV0XPYn4ySz11wFMvFJ8-97" edge="1">
          <mxGeometry width="50" height="50" relative="1" as="geometry">
            <mxPoint x="-361" y="603.9999999999999" as="sourcePoint" />
            <mxPoint x="-361" y="310" as="targetPoint" />
            <Array as="points">
              <mxPoint x="-361" y="283" />
            </Array>
          </mxGeometry>
        </mxCell>
        <mxCell id="9ASUcdKAyf25VZPDMdZJ-2" value="Ultimos comentarios" style="rounded=0;whiteSpace=wrap;html=1;" parent="1" vertex="1">
          <mxGeometry x="190" y="450" width="160" height="30" as="geometry" />
        </mxCell>
        <mxCell id="9ASUcdKAyf25VZPDMdZJ-3" value="" style="endArrow=classic;html=1;exitX=0.5;exitY=1;exitDx=0;exitDy=0;" parent="1" source="9ASUcdKAyf25VZPDMdZJ-2" edge="1">
          <mxGeometry width="50" height="50" relative="1" as="geometry">
            <mxPoint x="260" y="610" as="sourcePoint" />
            <mxPoint x="270" y="1041.60009765625" as="targetPoint" />
          </mxGeometry>
        </mxCell>
        <mxCell id="9ASUcdKAyf25VZPDMdZJ-4" value="" style="verticalLabelPosition=bottom;verticalAlign=top;html=1;shadow=0;dashed=0;strokeWidth=1;shape=mxgraph.android.phone2;strokeColor=#c0c0c0;" parent="1" vertex="1">
          <mxGeometry x="170" y="1040" width="200" height="390" as="geometry" />
        </mxCell>
        <mxCell id="9ASUcdKAyf25VZPDMdZJ-5" value="Comentarios" style="rounded=0;whiteSpace=wrap;html=1;" parent="1" vertex="1">
          <mxGeometry x="190" y="1110" width="160" height="60" as="geometry" />
        </mxCell>
        <mxCell id="9ASUcdKAyf25VZPDMdZJ-6" value="" style="endArrow=none;html=1;" parent="1" edge="1">
          <mxGeometry width="50" height="50" relative="1" as="geometry">
            <mxPoint x="180" y="1100" as="sourcePoint" />
            <mxPoint x="360" y="1100" as="targetPoint" />
          </mxGeometry>
        </mxCell>
        <mxCell id="9ASUcdKAyf25VZPDMdZJ-7" value="Regresar" style="rounded=1;whiteSpace=wrap;html=1;" parent="1" vertex="1">
          <mxGeometry x="180" y="1080" width="70" height="20" as="geometry" />
        </mxCell>
        <mxCell id="9ASUcdKAyf25VZPDMdZJ-9" value="" style="rounded=1;whiteSpace=wrap;html=1;glass=0;sketch=0;strokeColor=#000000;fillColor=none;gradientColor=#ffffff;" parent="1" vertex="1">
          <mxGeometry x="180" y="1180" width="180" height="210" as="geometry" />
        </mxCell>
        <mxCell id="9ASUcdKAyf25VZPDMdZJ-10" value="Comentarios" style="text;html=1;strokeColor=none;fillColor=none;align=center;verticalAlign=middle;whiteSpace=wrap;rounded=0;glass=0;sketch=0;" parent="1" vertex="1">
          <mxGeometry x="200" y="1180" width="40" height="20" as="geometry" />
        </mxCell>
        <mxCell id="9ASUcdKAyf25VZPDMdZJ-11" value="img" style="ellipse;whiteSpace=wrap;html=1;aspect=fixed;" parent="1" vertex="1">
          <mxGeometry x="180" y="1200" width="40" height="40" as="geometry" />
        </mxCell>
        <mxCell id="9ASUcdKAyf25VZPDMdZJ-12" value="&lt;span&gt;Comentario 1&lt;/span&gt;" style="rounded=1;whiteSpace=wrap;html=1;" parent="1" vertex="1">
          <mxGeometry x="230" y="1200" width="90" height="20" as="geometry" />
        </mxCell>
        <mxCell id="9ASUcdKAyf25VZPDMdZJ-13" value="" style="html=1;verticalLabelPosition=bottom;labelBackgroundColor=#ffffff;verticalAlign=top;shadow=0;dashed=0;strokeWidth=2;shape=mxgraph.ios7.misc.scroll_(vertical);fillColor=#a0a0a0;glass=0;sketch=0;" parent="1" vertex="1">
          <mxGeometry x="344" y="1195" width="6" height="155" as="geometry" />
        </mxCell>
        <mxCell id="9ASUcdKAyf25VZPDMdZJ-15" value="img" style="ellipse;whiteSpace=wrap;html=1;aspect=fixed;" parent="1" vertex="1">
          <mxGeometry x="180" y="1240" width="40" height="40" as="geometry" />
        </mxCell>
        <mxCell id="9ASUcdKAyf25VZPDMdZJ-16" value="&lt;span&gt;Comentario 2&lt;/span&gt;" style="rounded=1;whiteSpace=wrap;html=1;" parent="1" vertex="1">
          <mxGeometry x="230" y="1240" width="90" height="20" as="geometry" />
        </mxCell>
        <mxCell id="9ASUcdKAyf25VZPDMdZJ-17" value="img" style="ellipse;whiteSpace=wrap;html=1;aspect=fixed;" parent="1" vertex="1">
          <mxGeometry x="180" y="1280" width="40" height="40" as="geometry" />
        </mxCell>
        <mxCell id="9ASUcdKAyf25VZPDMdZJ-18" value="&lt;span&gt;Comentario 3&lt;/span&gt;" style="rounded=1;whiteSpace=wrap;html=1;" parent="1" vertex="1">
          <mxGeometry x="230" y="1280" width="90" height="20" as="geometry" />
        </mxCell>
        <mxCell id="9ASUcdKAyf25VZPDMdZJ-19" value="img" style="ellipse;whiteSpace=wrap;html=1;aspect=fixed;" parent="1" vertex="1">
          <mxGeometry x="180" y="1320" width="40" height="40" as="geometry" />
        </mxCell>
        <mxCell id="9ASUcdKAyf25VZPDMdZJ-20" value="n... Comentario" style="rounded=1;whiteSpace=wrap;html=1;" parent="1" vertex="1">
          <mxGeometry x="230" y="1320" width="90" height="20" as="geometry" />
        </mxCell>
        <mxCell id="9ASUcdKAyf25VZPDMdZJ-21" value="" style="endArrow=classic;html=1;exitX=0.5;exitY=0;exitDx=0;exitDy=0;entryX=0.256;entryY=0.996;entryDx=0;entryDy=0;entryPerimeter=0;" parent="1" source="9ASUcdKAyf25VZPDMdZJ-7" target="hV0XPYn4ySz11wFMvFJ8-1" edge="1">
          <mxGeometry width="50" height="50" relative="1" as="geometry">
            <mxPoint x="120" y="970.5" as="sourcePoint" />
            <mxPoint x="260" y="970" as="targetPoint" />
          </mxGeometry>
        </mxCell>
      </root>
    </mxGraphModel>
  </diagram>
</mxfile>
